<?xml version="1.0" encoding="iso-8859-1"?>
<!-- Generator: Adobe Illustrator 18.1.1, SVG Export Plug-In . SVG Version: 6.00 Build 0)  -->
<svg version="1.1" id="Capa_1" xmlns="http://www.w3.org/2000/svg" xmlns:xlink="http://www.w3.org/1999/xlink" x="0px" y="0px"
	 width="35.318px" height="35.318px" viewBox="0 0 26.738 26.738" style="enable-background:new 0 0 26.738 26.738;" xml:space="preserve">
<g>
	<path style="fill:#010002;" d="M16.466,5.957H6.211V4.233h10.255V5.957z M20.492,4.233h-2.546v1.724h2.546V4.233z M6.211,9.26
		h14.281V7.536H6.211V9.26z M13.024,10.84v1.724h7.467V10.84H13.024z M11.58,10.84H6.211v1.724h5.368
		C11.579,12.564,11.579,10.84,11.58,10.84z M6.211,15.867h14.281v-1.724H6.211V15.867z M14.299,17.446H6.211v1.724h8.087
		C14.298,19.17,14.298,17.446,14.299,17.446z M15.708,17.446v1.724h4.783v-1.724H15.708z M6.211,22.474h14.281V20.75H6.211V22.474z
		 M24.621,3.167v20.404c0,1.746-1.244,3.167-2.773,3.167H4.889c-1.529,0-2.773-1.421-2.773-3.167V3.167C2.116,1.421,3.36,0,4.889,0
		h16.959C23.377,0,24.621,1.421,24.621,3.167z M22.97,3.167c0-0.821-0.513-1.515-1.121-1.515H4.889
		c-0.608,0-1.121,0.694-1.121,1.515v20.404c0,0.821,0.513,1.515,1.121,1.515h16.959c0.608,0,1.121-0.694,1.121-1.515V3.167z"/>
</g>
<g>
</g>
<g>
</g>
<g>
</g>
<g>
</g>
<g>
</g>
<g>
</g>
<g>
</g>
<g>
</g>
<g>
</g>
<g>
</g>
<g>
</g>
<g>
</g>
<g>
</g>
<g>
</g>
<g>
</g>
</svg>
