<?xml version="1.0" encoding="iso-8859-1"?>
<!-- Generator: Adobe Illustrator 16.0.0, SVG Export Plug-In . SVG Version: 6.00 Build 0)  -->
<!DOCTYPE svg PUBLIC "-//W3C//DTD SVG 1.1//EN" "http://www.w3.org/Graphics/SVG/1.1/DTD/svg11.dtd">
<svg version="1.1" id="Capa_1" xmlns="http://www.w3.org/2000/svg" xmlns:xlink="http://www.w3.org/1999/xlink" x="0px" y="0px"
	 width="35.318px" height="35.318px" viewBox="0 0 32 32" style="enable-background:new 0 0 32 32;" xml:space="preserve">
<g>
	<path d="M13.767,19.354h1.398v6.377l-1.123-0.002l0.003-0.823c-0.301,0.646-1.507,1.168-2.136,0.714
		c-0.337-0.241-0.326-0.666-0.36-1.029c-0.018-0.206-0.003-0.658-0.004-1.27l-0.004-3.967h1.39l0.007,4.03
		c0,0.55-0.03,0.87,0.004,0.976c0.198,0.607,0.71,0.279,0.823-0.031c0.038-0.104,0.002-0.393,0.002-0.971V19.354z M19.635,20.604
		l0.004,3.334c0,1.615-0.922,2.535-2.391,1.188l-0.104,0.533l-1.149,0.017l0.007-8.55l1.396-0.002l-0.006,2.478
		C18.684,18.576,19.634,19.336,19.635,20.604z M18.6,20.438c0-0.274-0.274-0.502-0.611-0.502c-0.336,0-0.61,0.228-0.61,0.502v3.74
		c0,0.276,0.274,0.502,0.61,0.502c0.337,0,0.611-0.226,0.611-0.502V20.438z M15.753,12.281c0.341,0,0.619-0.306,0.619-0.681V8.071
		c0-0.375-0.278-0.682-0.619-0.682c-0.34,0-0.619,0.307-0.619,0.682V11.6C15.134,11.976,15.413,12.281,15.753,12.281z
		 M11.815,18.236v-1.109L7.344,17.12v1.093l1.396,0.003v7.521h1.399l-0.002-7.498h1.678V18.236z M32,0v32H0V0H32L32,0z
		 M18.475,11.019c0,0.567,0.01,0.948,0.027,1.141c0.02,0.191,0.062,0.375,0.135,0.554c0.071,0.175,0.184,0.315,0.336,0.425
		c0.15,0.105,0.342,0.158,0.572,0.158c0.201,0,0.38-0.056,0.536-0.168c0.155-0.111,0.286-0.277,0.394-0.501l-0.026,0.549h1.559
		V6.549h-1.228v5.158c0,0.279-0.229,0.508-0.512,0.508c-0.279,0-0.512-0.229-0.512-0.508V6.549h-1.279v4.471L18.475,11.019
		L18.475,11.019z M14.072,7.478c-0.105,0.357-0.159,0.854-0.159,1.49v1.754c0,0.582,0.029,1.019,0.087,1.309
		c0.059,0.289,0.156,0.539,0.293,0.742c0.136,0.205,0.327,0.358,0.574,0.459c0.247,0.104,0.546,0.151,0.901,0.151
		c0.318,0,0.6-0.059,0.845-0.178c0.242-0.117,0.445-0.304,0.601-0.551c0.158-0.25,0.261-0.519,0.308-0.806
		c0.047-0.287,0.071-0.74,0.071-1.354V8.819c0-0.486-0.024-0.848-0.079-1.086c-0.051-0.235-0.146-0.467-0.289-0.69
		C17.086,6.819,16.887,6.64,16.627,6.5c-0.258-0.14-0.566-0.21-0.927-0.21c-0.429,0-0.781,0.109-1.057,0.326
		C14.369,6.832,14.178,7.119,14.072,7.478z M8.97,3.935l1.849,4.366l0.001,5.081h1.471l0.001-5.083l1.738-4.354h-1.608l-0.924,3.234
		l-0.937-3.244H8.97z M26.055,17.845c0-1.706-1.479-3.104-3.291-3.104H9.236c-1.81,0-3.29,1.396-3.29,3.104v7.116
		c0,1.707,1.479,3.104,3.29,3.104h13.528c1.812,0,3.291-1.396,3.291-3.104V17.845z M24.014,23.496
		c0.479,2.841-3.531,3.309-3.531,0.005v-1.985c0-0.597,0.059-1.064,0.179-1.408c0.118-0.344,0.319-0.601,0.587-0.789
		c0.848-0.612,2.521-0.424,2.693,0.771c0.056,0.377,0.072,1.037,0.072,1.697v0.901h-2.4v0.832v0.645v0.062
		c0,0.313,0.259,0.568,0.572,0.568h0.205c0.314,0,0.573-0.256,0.573-0.568v-0.584c0-0.054,0.002-0.101,0.003-0.143L24.014,23.496z
		 M21.63,21.586h1.325l0.016-0.771c0-0.342-0.281-0.621-0.627-0.621h-0.082c-0.345,0-0.625,0.279-0.625,0.621L21.63,21.586z"/>
</g>
<g>
</g>
<g>
</g>
<g>
</g>
<g>
</g>
<g>
</g>
<g>
</g>
<g>
</g>
<g>
</g>
<g>
</g>
<g>
</g>
<g>
</g>
<g>
</g>
<g>
</g>
<g>
</g>
<g>
</g>
</svg>
